<svg xmlns="http://www.w3.org/2000/svg" viewBox="0 0 48 48"><defs><style>.cls-3{fill:#ceb15a}</style></defs><g id="_3d" data-name="3d"><path style="fill:#fc6459" d="M35 20v14l-11 5V25l11-5z"/><path style="fill:#bfbfbf" d="m35 20-11 5-11-5 11-5 11 5z"/><path class="cls-3" d="m22.71 7.71.29-.3V9a1 1 0 0 0 2 0V7.41l.29.3a1 1 0 0 0 1.42-1.42l-2-2a1 1 0 0 0-1.09-.21c-.26.1-.17 0-2.33 2.21a1 1 0 0 0 1.42 1.42zM9.64 35.13l-1.37.8.11-.4A1 1 0 1 0 6.45 35c-.75 2.78-.91 3-.64 3.49a1.16 1.16 0 0 0 .61.47 19.94 19.94 0 0 0 3 .76 1 1 0 0 0 .26-2l-.4-.11 1.37-.79a1 1 0 0 0-1-1.74zM41.59 39a1.13 1.13 0 0 0 .6-.46c.26-.45.17-.47-.64-3.49a1 1 0 1 0-1.93.52l.11.4-1.37-.8a1 1 0 0 0-1 1.74l1.37.79-.4.11a1 1 0 1 0 .52 1.93zM1 8a1 1 0 0 0 1-1V2h5a1 1 0 0 0 0-2H1a1 1 0 0 0-1 1v6a1 1 0 0 0 1 1zM7 46H2v-5a1 1 0 0 0-2 0v6a1 1 0 0 0 1 1h6a1 1 0 0 0 0-2zM47 40a1 1 0 0 0-1 1v5h-5a1 1 0 0 0 0 2h6a1 1 0 0 0 1-1v-6a1 1 0 0 0-1-1zM47 0h-6a1 1 0 0 0 0 2h5v5a1 1 0 0 0 2 0V1a1 1 0 0 0-1-1zM35.39 19.08c-.1 0 1.13.51-10.39-4.72V13a1 1 0 0 0-2 0v1.36C12.12 19.3 12.39 19 12.11 19.56A1.14 1.14 0 0 0 12 20c0 14.63-.18 14.42.47 14.83s-1.38-.6 11.12 5.08a1 1 0 0 0 .82 0c11.92-5.41 11.17-5 11.42-5.38s.17.8.17-14.53a1 1 0 0 0-.61-.92zM23 16.55V17a1 1 0 0 0 2 0v-.45L32.58 20 25 23.45V21a1 1 0 0 0-2 0v2.45L15.42 20zm-7.48 17.5 2.05-1.18a1 1 0 1 0-1-1.74L14 32.62V21.55l9 4.09v1.78l-3 1.71a1 1 0 0 0 .5 1.87c.35 0 .32 0 2.46-1.27v7.72zM25 29.73C27.12 31 27.11 31 27.46 31a1 1 0 0 0 .5-1.87l-3-1.71v-1.78l9-4.09v11.07l-2.57-1.49a1 1 0 1 0-1 1.74l2 1.18-7.39 3.4z"/></g></svg>